<svg width="25" height="28" viewBox="0 0 25 28" fill="none" xmlns="http://www.w3.org/2000/svg">
<g id="vuesax/linear/building">
<g id="building">
<path id="Vector" d="M13.0946 25.0283H4.76566C3.6182 25.0283 2.67847 23.9978 2.67847 22.7345V6.29022C2.67847 3.38698 4.60739 2.06833 6.97155 3.36482L11.3635 5.78049C12.3132 6.30131 13.0946 7.68644 13.0946 8.86103V25.0283Z" stroke="white" stroke-width="1.5" stroke-linecap="round" stroke-linejoin="round"/>
<path id="Vector_2" d="M22.4621 17.3381V21.5267C22.4621 23.9203 21.4729 25.0284 19.3363 25.0284H13.0945V12.1965L13.5594 12.3073L18.0108 13.4265L20.0188 13.9251C21.3245 14.2465 22.3929 15 22.4522 17.1276C22.4621 17.194 22.4621 17.2605 22.4621 17.3381Z" stroke="white" stroke-width="1.5" stroke-linecap="round" stroke-linejoin="round"/>
<path id="Vector_3" d="M6.17017 10.6229H9.60265" stroke="white" stroke-width="1.5" stroke-linecap="round" stroke-linejoin="round"/>
<path id="Vector_4" d="M6.17017 15.0554H9.60265" stroke="white" stroke-width="1.5" stroke-linecap="round" stroke-linejoin="round"/>
<path id="Vector_5" d="M18.0109 13.4264V16.9945C18.0109 18.3686 17.0118 19.4878 15.7852 19.4878C14.5587 19.4878 13.5596 18.3686 13.5596 16.9945V12.3073L18.0109 13.4264Z" stroke="white" stroke-width="1.5" stroke-linecap="round" stroke-linejoin="round"/>
<path id="Vector_6" d="M22.4522 17.1275C22.3929 18.4351 21.4234 19.4878 20.2364 19.4878C19.0098 19.4878 18.0107 18.3686 18.0107 16.9946V13.4265L20.0188 13.9251C21.3245 14.2465 22.3929 15 22.4522 17.1275Z" stroke="white" stroke-width="1.5" stroke-linecap="round" stroke-linejoin="round"/>
</g>
</g>
</svg>
