<svg width="24" height="18" viewBox="0 0 24 18" fill="none" xmlns="http://www.w3.org/2000/svg">
<mask id="mask0_3180_171" style="mask-type:luminance" maskUnits="userSpaceOnUse" x="0" y="0" width="24" height="18">
<path d="M0 0H24V18H0V0Z" fill="white"/>
</mask>
<g mask="url(#mask0_3180_171)">
<path fill-rule="evenodd" clip-rule="evenodd" d="M0 0H24V18H0V0Z" fill="#F7FCFF"/>
<path fill-rule="evenodd" clip-rule="evenodd" d="M0 11V12.5H24V11H0Z" fill="#E31D1C"/>
<path fill-rule="evenodd" clip-rule="evenodd" d="M0 13.75V15.25H24V13.75H0Z" fill="#E31D1C"/>
<path fill-rule="evenodd" clip-rule="evenodd" d="M0 5.49988V6.99988H24V5.49988H0Z" fill="#E31D1C"/>
<path fill-rule="evenodd" clip-rule="evenodd" d="M0 16.5V18H24V16.5H0Z" fill="#E31D1C"/>
<path fill-rule="evenodd" clip-rule="evenodd" d="M0 8.25003V9.75003H24V8.25003H0Z" fill="#E31D1C"/>
<path fill-rule="evenodd" clip-rule="evenodd" d="M0 0V1.5H24V0H0Z" fill="#E31D1C"/>
<path fill-rule="evenodd" clip-rule="evenodd" d="M0 2.75009V4.25009H24V2.75009H0Z" fill="#E31D1C"/>
<path d="M0 0H15V9.75H0V0Z" fill="#2E42A5"/>
<path fill-rule="evenodd" clip-rule="evenodd" d="M1.29142 2.20401L0.747004 2.58567L0.930801 1.90646L0.447266 1.47602H1.07883L1.29065 0.921722L1.53903 1.47602H2.07742L1.65439 1.90646L1.81816 2.58567L1.29142 2.20401ZM4.29142 2.20401L3.74701 2.58567L3.9308 1.90646L3.44727 1.47602H4.07883L4.29065 0.921722L4.53903 1.47602H5.07742L4.65439 1.90646L4.81816 2.58567L4.29142 2.20401ZM6.74701 2.58567L7.29142 2.20401L7.81816 2.58567L7.65437 1.90646L8.07744 1.47602H7.53901L7.29065 0.921722L7.07883 1.47602H6.44727L6.9308 1.90646L6.74701 2.58567ZM10.2914 2.20401L9.74701 2.58567L9.93084 1.90646L9.44724 1.47602H10.0788L10.2907 0.921722L10.539 1.47602H11.0774L10.6544 1.90646L10.8182 2.58567L10.2914 2.20401ZM0.747004 5.58567L1.29142 5.20401L1.81816 5.58567L1.65439 4.90646L2.07742 4.47603H1.53903L1.29065 3.92172L1.07883 4.47603H0.447266L0.930801 4.90646L0.747004 5.58567ZM4.29142 5.20401L3.74701 5.58567L3.9308 4.90646L3.44727 4.47603H4.07883L4.29065 3.92172L4.53903 4.47603H5.07742L4.65439 4.90646L4.81816 5.58567L4.29142 5.20401ZM6.74701 5.58567L7.29142 5.20401L7.81816 5.58567L7.65437 4.90646L8.07744 4.47603H7.53901L7.29065 3.92172L7.07883 4.47603H6.44727L6.9308 4.90646L6.74701 5.58567ZM10.2914 5.20401L9.74701 5.58567L9.93084 4.90646L9.44724 4.47603H10.0788L10.2907 3.92172L10.539 4.47603H11.0774L10.6544 4.90646L10.8182 5.58567L10.2914 5.20401ZM0.747004 8.58567L1.29142 8.204L1.81816 8.58567L1.65439 7.90647L2.07742 7.47603H1.53903L1.29065 6.92172L1.07883 7.47603H0.447266L0.930801 7.90647L0.747004 8.58567ZM4.29142 8.204L3.74701 8.58567L3.9308 7.90647L3.44727 7.47603H4.07883L4.29065 6.92172L4.53903 7.47603H5.07742L4.65439 7.90647L4.81816 8.58567L4.29142 8.204ZM6.74701 8.58567L7.29142 8.204L7.81816 8.58567L7.65437 7.90647L8.07744 7.47603H7.53901L7.29065 6.92172L7.07883 7.47603H6.44727L6.9308 7.90647L6.74701 8.58567ZM10.2914 8.204L9.74701 8.58567L9.93084 7.90647L9.44724 7.47603H10.0788L10.2907 6.92172L10.539 7.47603H11.0774L10.6544 7.90647L10.8182 8.58567L10.2914 8.204ZM12.747 2.58567L13.2914 2.20401L13.8182 2.58567L13.6544 1.90646L14.0774 1.47602H13.539L13.2907 0.921722L13.0788 1.47602H12.4472L12.9308 1.90646L12.747 2.58567ZM13.2914 5.20401L12.747 5.58567L12.9308 4.90646L12.4472 4.47603H13.0788L13.2907 3.92172L13.539 4.47603H14.0774L13.6544 4.90646L13.8182 5.58567L13.2914 5.20401ZM12.747 8.58567L13.2914 8.204L13.8182 8.58567L13.6544 7.90647L14.0774 7.47603H13.539L13.2907 6.92172L13.0788 7.47603H12.4472L12.9308 7.90647L12.747 8.58567ZM2.79142 3.70401L2.24701 4.08566L2.4308 3.40646L1.94727 2.97603H2.57883L2.79065 2.42172L3.03903 2.97603H3.57742L3.15439 3.40646L3.31816 4.08566L2.79142 3.70401ZM5.24701 4.08566L5.79142 3.70401L6.31816 4.08566L6.15439 3.40646L6.57742 2.97603H6.03903L5.79065 2.42172L5.57883 2.97603H4.94727L5.4308 3.40646L5.24701 4.08566ZM8.79144 3.70401L8.24701 4.08566L8.43084 3.40646L7.94724 2.97603H8.57881L8.79069 2.42172L9.03901 2.97603H9.57744L9.15437 3.40646L9.31816 4.08566L8.79144 3.70401ZM2.24701 7.08567L2.79142 6.70401L3.31816 7.08567L3.15439 6.40646L3.57742 5.97603H3.03903L2.79065 5.42172L2.57883 5.97603H1.94727L2.4308 6.40646L2.24701 7.08567ZM5.79142 6.70401L5.24701 7.08567L5.4308 6.40646L4.94727 5.97603H5.57883L5.79065 5.42172L6.03903 5.97603H6.57742L6.15439 6.40646L6.31816 7.08567L5.79142 6.70401ZM8.24701 7.08567L8.79144 6.70401L9.31816 7.08567L9.15437 6.40646L9.57744 5.97603H9.03901L8.79069 5.42172L8.57881 5.97603H7.94724L8.43084 6.40646L8.24701 7.08567ZM11.7914 3.70401L11.247 4.08566L11.4308 3.40646L10.9472 2.97603H11.5788L11.7907 2.42172L12.039 2.97603H12.5774L12.1544 3.40646L12.3182 4.08566L11.7914 3.70401ZM11.247 7.08567L11.7914 6.70401L12.3182 7.08567L12.1544 6.40646L12.5774 5.97603H12.039L11.7907 5.42172L11.5788 5.97603H10.9472L11.4308 6.40646L11.247 7.08567Z" fill="#F7FCFF"/>
</g>
</svg>
