<svg width="241" height="224" viewBox="0 0 241 224" fill="none" xmlns="http://www.w3.org/2000/svg">
<g clip-path="url(#clip0_3180_89)">
<path d="M144.444 222.366C158.798 218.129 170.427 205.753 173.709 191.186C175.302 184.109 175.111 176.461 178.631 170.114C189.337 150.724 223.126 158.579 236.285 140.744C243.326 131.207 241.494 117.8 237.256 106.724C233.019 95.6645 226.662 85.1444 225.388 73.3708C224.448 64.7707 226.312 56.0595 225.468 47.4594C224.321 35.7334 217.885 24.6262 208.278 17.7556C198.672 10.885 186.039 8.37798 174.521 11.0437C155.118 15.5342 139.521 33.5754 119.608 32.8931C102.721 32.3219 89.244 18.2792 72.7398 14.6615C59.7881 11.8212 45.4982 16.1054 36.2584 25.5782C27.0186 35.0511 23.1633 49.4111 26.3973 62.2319C28.5001 70.5464 33.3112 78.0041 35.207 86.3662C38.648 101.567 32.0208 117.165 24.167 130.652C16.3291 144.124 6.91401 157.246 4.03055 172.558C1.14709 187.87 7.32821 206.387 22.1279 211.417C30.9694 214.416 40.7031 212.036 49.4331 208.783C58.1791 205.53 66.8135 201.357 76.133 200.738C88.6864 199.913 95.8712 207.91 105.175 214.543C116.549 222.651 130.775 226.396 144.444 222.366Z" fill="url(#paint0_linear_3180_89)"/>
<path d="M96.556 1.63473C82.1865 5.87133 70.573 18.2479 67.2913 32.8142C65.6982 39.891 65.8894 47.5391 62.3687 53.8861C51.6632 73.276 17.8742 65.4217 4.71537 83.2566C-2.32601 92.7929 -0.478041 106.201 3.7436 117.276C7.98117 128.336 14.3375 138.856 15.612 150.63C16.5519 159.23 14.688 167.941 15.5323 176.541C16.6793 188.267 23.1154 199.374 32.7216 206.245C42.3278 213.115 54.9609 215.622 66.4788 212.957C85.8824 208.466 101.479 190.425 121.392 191.107C138.279 191.679 151.756 205.721 168.26 209.339C181.212 212.179 195.502 207.895 204.742 198.422C213.981 188.949 217.837 174.589 214.603 161.768C212.5 153.454 207.689 145.996 205.793 137.634C202.352 122.433 208.979 106.836 216.833 93.3483C224.671 79.8769 234.086 66.7386 236.969 51.4266C239.853 36.1146 233.672 17.5973 218.872 12.5674C210.031 9.56843 200.297 11.9485 191.567 15.2014C182.821 18.4542 174.186 22.6273 164.867 23.2461C152.314 24.0712 145.129 16.0741 135.825 9.44149C124.451 1.34912 110.24 -2.39559 96.556 1.63473Z" fill="url(#paint1_linear_3180_89)"/>
<path d="M53.8458 214.353C50.4207 213.401 47.1708 212.02 44.2077 210.243C34.6174 204.499 27.7035 194.534 25.7121 183.57C24.9952 179.635 24.8997 175.573 24.7881 171.638C24.6926 167.623 24.581 163.482 23.8164 159.515C22.3667 151.978 18.5592 145.044 14.8792 138.332C13.318 135.492 11.709 132.556 10.2912 129.605C7.99716 124.813 5.25708 117.546 5.25708 110.088C5.25708 105.296 6.38816 101.028 8.63439 97.3941C13.9871 88.7305 24.3899 85.3824 34.4422 82.1455C45.3388 78.6388 55.6141 75.3225 59.8835 65.8338C61.7156 61.7718 61.9704 57.1544 62.2253 52.6797C62.3528 50.5059 62.4802 48.2369 62.7829 46.063C64.7583 31.9887 74.6354 19.5804 87.9375 14.4552C99.6147 9.94885 113.427 11.5991 125.502 18.787C127.239 19.8184 128.911 20.9132 130.536 21.9605C136.558 25.8797 142.261 29.5768 149.653 29.5768C150.784 29.5768 151.947 29.4816 153.126 29.3229C159.339 28.4026 165.154 25.721 171.064 22.8332L171.59 23.8804C165.6 26.8159 159.689 29.5292 153.301 30.4813C152.075 30.6558 150.848 30.751 149.653 30.751C141.911 30.751 136.064 26.9587 129.899 22.9443C128.29 21.897 126.617 20.818 124.913 19.7866C113.14 12.7733 99.7263 11.1706 88.3836 15.5342C75.6709 20.4372 65.8575 32.7662 63.9777 46.2217C63.675 48.3638 63.5476 50.6011 63.4201 52.7432C63.1653 57.313 62.8944 62.0415 60.9668 66.3098C56.4903 76.2746 45.4662 79.813 34.8086 83.2562C24.9634 86.4297 14.7677 89.7142 9.63803 97.997C7.51924 101.424 6.43595 105.486 6.43595 110.072C6.43595 117.308 9.11231 124.4 11.3585 129.081C12.7605 132.001 14.3695 134.936 15.9147 137.761C19.6425 144.552 23.4818 151.565 24.9634 159.277C25.744 163.339 25.8555 167.544 25.9511 171.59C26.0467 175.478 26.1582 179.492 26.8591 183.332C28.7868 193.963 35.4936 203.642 44.7971 209.212C47.6806 210.941 50.8349 212.274 54.1485 213.194L53.8458 214.353ZM175.206 203.261C173.613 203.261 172.02 203.15 170.475 202.944C164.07 202.071 158.065 199.596 151.453 196.692L151.931 195.629C158.463 198.501 164.389 200.945 170.634 201.786C172.131 201.992 173.677 202.087 175.206 202.087C185.959 202.087 196.41 197.232 203.133 189.092C208.358 182.777 211.225 174.621 211.225 166.147C211.225 162.244 210.604 158.452 209.377 154.882C208.151 151.28 206.319 147.837 204.534 144.504C202.702 141.061 200.807 137.507 199.548 133.746L200.663 133.381C201.89 137.047 203.754 140.569 205.57 143.965C207.37 147.345 209.218 150.82 210.477 154.517C211.735 158.214 212.372 162.117 212.372 166.147C212.372 174.89 209.409 183.316 204.009 189.838C197.079 198.247 186.31 203.261 175.206 203.261Z" fill="white"/>
<path d="M80.1953 57.1544C93.1629 82.7009 87.2686 74.2753 107.58 70.356C126.713 66.6589 134.981 81.4315 126.57 92.9036C119.098 103.09 107.485 104.027 100.045 113.277C95.9508 118.371 97.0978 123.147 97.5279 138.983C138.916 143.489 106.067 134.191 132.799 118.323C194.004 82.0344 135.109 20.6435 80.1953 57.1544Z" fill="white"/>
<path d="M92.191 163.006C90.0563 182.491 120.245 185.617 122.364 166.29C124.483 147.011 94.3257 143.568 92.191 163.006Z" fill="white"/>
</g>
<defs>
<linearGradient id="paint0_linear_3180_89" x1="20.5837" y1="229.557" x2="202.834" y2="9.54875" gradientUnits="userSpaceOnUse">
<stop stop-color="#012030"/>
<stop offset="1" stop-color="#2586BD"/>
</linearGradient>
<linearGradient id="paint1_linear_3180_89" x1="43.3197" y1="214.101" x2="248.872" y2="-32.9207" gradientUnits="userSpaceOnUse">
<stop stop-color="#012030"/>
<stop offset="1" stop-color="#0381C9"/>
</linearGradient>
<clipPath id="clip0_3180_89">
<rect width="241" height="224" fill="white"/>
</clipPath>
</defs>
</svg>
