<svg width="208" height="44" viewBox="0 0 208 44" fill="none" xmlns="http://www.w3.org/2000/svg">
<path d="M109.353 43.5743L91.2119 12.5483H100.13L113.583 35.5591L127.036 12.5483H135.995L117.857 43.5743H109.353Z" fill="#134E70"/>
<path d="M135.233 12.9827L122.441 34.8658L117.603 43.139H109.607L91.9764 12.9827H99.8757L113.584 36.4283L122.441 21.282L127.293 12.9827H135.233ZM136.76 12.113H126.779L126.527 12.5479L121.677 20.8472L113.584 34.689L100.639 12.5479L100.386 12.113H90.45L91.2132 13.4175L108.847 43.5652L109.099 44H118.102L118.357 43.5652L123.195 35.292L136.008 13.4175L136.772 12.113H136.76Z" fill="#134E70"/>
<path d="M124.824 43.5743L142.962 12.5483H151.924L133.783 43.5743H124.824Z" fill="#134E70"/>
<path d="M151.161 12.9827L133.53 43.1304H125.587L143.217 12.9827H151.161ZM152.687 12.113H142.707L142.451 12.5479L124.821 42.6955L124.058 44H134.038L134.291 43.5652L151.924 13.4175L152.687 12.113Z" fill="#134E70"/>
<path d="M0.389404 28.2797C0.389404 19.3339 7.38168 12.9826 17.1685 12.9826C23.4886 12.9826 28.4671 15.6872 30.6482 20.5485L23.8731 24.1373C22.2586 21.3225 19.8545 20.0499 17.1215 20.0499C12.7183 20.0499 9.23395 23.0879 9.23395 28.2797C9.23395 33.4715 12.6949 36.5094 17.1215 36.5094C19.8633 36.5094 22.2674 35.2948 23.8907 32.4221L30.6423 36.0688C28.4612 40.82 23.4827 43.5796 17.1626 43.5796C7.38168 43.5796 0.389404 37.2283 0.389404 28.2797Z" fill="#012030"/>
<path d="M54.3641 12.9832V20.9347C53.6362 20.8796 53.0784 20.8245 52.4062 20.8245C47.595 20.8245 44.4071 23.4335 44.4071 29.1094V43.1396H35.6829V13.4239H44.0166V17.346C46.1419 14.4732 49.7232 12.9832 54.3641 12.9832Z" fill="#012030"/>
<path d="M88.5943 30.7124H65.8298C66.6693 34.4113 69.8572 36.6782 74.4454 36.6782C77.6333 36.6782 79.9259 35.7389 81.9954 33.8054L86.6363 38.7769C83.8418 41.925 79.647 43.5802 74.2223 43.5802C63.819 43.5802 57.0498 37.1188 57.0498 28.2803C57.0498 19.3896 63.9305 12.9832 73.1009 12.9832C81.9396 12.9832 88.7616 18.836 88.7616 28.3933C88.7616 29.0543 88.6501 29.9935 88.5943 30.7124ZM65.7182 25.6859H80.5423C79.9259 21.9174 77.0726 19.4998 73.1596 19.4998C69.1879 19.4998 66.3347 21.8739 65.7182 25.6859Z" fill="#012030"/>
<path d="M159.885 4.64033C159.866 4.02601 159.974 3.41426 160.203 2.84281C160.432 2.27135 160.777 1.75231 161.217 1.31772C161.657 0.883117 162.183 0.542176 162.762 0.315924C163.34 0.0896724 163.96 -0.0170905 164.582 0.00222165C167.321 0.00222165 169.279 1.99081 169.279 4.64033C169.279 7.34782 167.321 9.3364 164.582 9.3364C161.843 9.3364 159.885 7.34782 159.885 4.64033ZM160.223 13.4237H168.947V43.1395H160.223V13.4237Z" fill="#012030"/>
<path d="M207.818 26.1265V43.1396H199.094V27.4541C199.094 22.6479 196.857 20.439 192.997 20.439C188.802 20.439 185.782 22.9784 185.782 28.4484V43.1396H177.057V13.4239H185.391V16.9024C187.74 14.3631 191.262 12.9832 195.345 12.9832C202.449 12.9832 207.818 17.0706 207.818 26.1265Z" fill="#012030"/>
</svg>
