<svg width="24" height="38" viewBox="0 0 24 38" fill="none" xmlns="http://www.w3.org/2000/svg">
<path d="M10.05 4.35822L4.03002 10.4125C2.10002 12.3536 2.10002 16.6979 4.03002 18.639L10.05 24.6934C11.13 25.7871 12.91 25.7871 13.99 24.6934L19.98 18.639C21.9 16.6979 21.9 12.369 19.98 10.4279L13.99 4.37362C12.91 3.26443 11.13 3.26443 10.05 4.35822Z" stroke="white" stroke-width="1.5" stroke-linecap="round" stroke-linejoin="round"/>
<path d="M5.63012 20.6109L5.62012 27.836C5.62012 29.7925 6.60012 31.8877 7.80012 32.5039L10.9901 34.1368C11.5401 34.4141 12.4501 34.4141 13.0101 34.1368L16.2001 32.5039C17.4001 31.8877 18.3801 29.7925 18.3801 27.836V20.6879" stroke="white" stroke-width="1.5" stroke-linecap="round" stroke-linejoin="round"/>
<path d="M21.3999 23.5687V14.3255" stroke="white" stroke-width="1.5" stroke-linecap="round" stroke-linejoin="round"/>
</svg>
